<?xml version="1.0" encoding="UTF-8"?>
<svg width="256" height="256" viewBox="0 0 256 256" fill="none" xmlns="http://www.w3.org/2000/svg" role="img" aria-label="Beryl logo - translucent green gem">
  <defs>
    <!-- Emerald glass gradient -->
    <linearGradient id="emerald" x1="40" y1="24" x2="216" y2="232" gradientUnits="userSpaceOnUse">
      <stop offset="0" stop-color="#B5F5CC"/>
      <stop offset="0.25" stop-color="#6FE3A5"/>
      <stop offset="0.6" stop-color="#2AC07D"/>
      <stop offset="1" stop-color="#11865B"/>
    </linearGradient>

    <!-- Facet variation gradient -->
    <linearGradient id="facet" x1="0" y1="0" x2="1" y2="1">
      <stop offset="0" stop-color="#D5FAE2" stop-opacity="0.9"/>
      <stop offset="1" stop-color="#21A66E" stop-opacity="0.85"/>
    </linearGradient>

    <!-- Subtle inner glow -->
    <radialGradient id="innerGlow" cx="0" cy="0" r="1" gradientUnits="userSpaceOnUse" gradientTransform="translate(128 110) rotate(90) scale(110 96)">
      <stop offset="0" stop-color="#FFFFFF" stop-opacity="0.45"/>
      <stop offset="1" stop-color="#FFFFFF" stop-opacity="0"/>
    </radialGradient>

    <!-- Edge highlight -->
    <linearGradient id="edgeHi" x1="64" y1="28" x2="192" y2="228" gradientUnits="userSpaceOnUse">
      <stop offset="0" stop-color="#FFFFFF" stop-opacity="0.75"/>
      <stop offset="1" stop-color="#FFFFFF" stop-opacity="0.05"/>
    </linearGradient>

    <!-- Drop shadow -->
    <filter id="shadow" x="-20%" y="-20%" width="140%" height="160%" color-interpolation-filters="sRGB">
      <feOffset dy="8" in="SourceAlpha" result="off"/>
      <feGaussianBlur in="off" stdDeviation="10" result="blur"/>
      <feColorMatrix in="blur" type="matrix" values="0 0 0 0 0   0 0 0 0 0.25   0 0 0 0 0.18   0 0 0 0.35 0"/>
      <feBlend in="SourceGraphic" mode="normal"/>
    </filter>

    <!-- Specular highlight gloss -->
    <linearGradient id="gloss" x1="60" y1="24" x2="196" y2="140" gradientUnits="userSpaceOnUse">
      <stop offset="0" stop-color="#FFFFFF" stop-opacity="0.65"/>
      <stop offset="0.6" stop-color="#FFFFFF" stop-opacity="0.12"/>
      <stop offset="1" stop-color="#FFFFFF" stop-opacity="0"/>
    </linearGradient>
  </defs>

  <!-- Shadow -->
  <ellipse cx="128" cy="214" rx="84" ry="18" fill="#0E3F2E" opacity="0.15"/>

  <!-- Gem base silhouette -->
  <g filter="url(#shadow)">
    <path d="M128 20 L60 60 L30 116 L64 200 L128 236 L192 200 L226 116 L196 60 Z" fill="url(#emerald)"/>

    <!-- Facets: top crown -->
    <path d="M128 20 L60 60 L128 96 L196 60 Z" fill="url(#facet)" opacity="0.85"/>

    <!-- Facets: upper left -->
    <path d="M60 60 L30 116 L96 128 L128 96 Z" fill="url(#facet)" opacity="0.75"/>

    <!-- Facets: upper right -->
    <path d="M196 60 L226 116 L160 128 L128 96 Z" fill="url(#facet)" opacity="0.78"/>

    <!-- Facets: pavilion left -->
    <path d="M30 116 L64 200 L96 128 Z" fill="url(#facet)" opacity="0.8"/>

    <!-- Facets: pavilion right -->
    <path d="M226 116 L192 200 L160 128 Z" fill="url(#facet)" opacity="0.82"/>

    <!-- Facets: center pavilion -->
    <path d="M96 128 L64 200 L128 236 L192 200 L160 128 Z" fill="url(#facet)" opacity="0.9"/>

    <!-- Inner glow for glassy look -->
    <ellipse cx="128" cy="120" rx="96" ry="86" fill="url(#innerGlow)"/>

    <!-- Edge highlights -->
    <path d="M128 20 L60 60 L30 116" fill="none" stroke="url(#edgeHi)" stroke-width="3" stroke-linecap="round"/>
    <path d="M226 116 L196 60 L128 20" fill="none" stroke="url(#edgeHi)" stroke-width="2.5" stroke-linecap="round"/>

    <!-- Gloss sweep -->
    <path d="M70 58 C110 32, 146 38, 190 70" fill="none" stroke="url(#gloss)" stroke-width="14" stroke-linecap="round" opacity="0.7"/>
    <path d="M54 120 C78 92, 134 76, 200 106" fill="none" stroke="url(#gloss)" stroke-width="10" stroke-linecap="round" opacity="0.45"/>

    <!-- Fine rim -->
    <path d="M128 20 L60 60 L30 116 L64 200 L128 236 L192 200 L226 116 L196 60 Z" fill="none" stroke="#E8FFF3" stroke-opacity="0.6" stroke-width="1.2"/>
  </g>

  <!-- Optional subtle B mark facet (hidden shape via contrast) -->
  <path d="M114 98 h22 a12 12 0 0 1 0 24 h-22 z m0 24 h24 a14 14 0 0 1 0 28 h-24 z" fill="#FFFFFF" opacity="0.08"/>

  <!-- Accessibility title (for screen readers that ignore aria-label) -->
  <title>Beryl – translucent emerald gem logo</title>
</svg>
